<?xml version="1.0" encoding="UTF-8" standalone="no"?>
<!-- Created with Inkscape (http://www.inkscape.org/) -->

<svg
   width="210mm"
   height="297mm"
   viewBox="0 0 210 297"
   version="1.1"
   id="svg1"
   inkscape:version="1.3 (0e150ed6c4, 2023-07-21)"
   sodipodi:docname="favicon.svg"
   inkscape:export-filename="favicon.png"
   inkscape:export-xdpi="96"
   inkscape:export-ydpi="96"
   xmlns:inkscape="http://www.inkscape.org/namespaces/inkscape"
   xmlns:sodipodi="http://sodipodi.sourceforge.net/DTD/sodipodi-0.dtd"
   xmlns="http://www.w3.org/2000/svg"
   xmlns:svg="http://www.w3.org/2000/svg">
  <sodipodi:namedview
     id="namedview1"
     pagecolor="#ffffff"
     bordercolor="#000000"
     borderopacity="0.25"
     inkscape:showpageshadow="2"
     inkscape:pageopacity="0.0"
     inkscape:pagecheckerboard="0"
     inkscape:deskcolor="#d1d1d1"
     inkscape:document-units="mm"
     inkscape:zoom="1.0242632"
     inkscape:cx="174.75977"
     inkscape:cy="496.45443"
     inkscape:window-width="1920"
     inkscape:window-height="1009"
     inkscape:window-x="1912"
     inkscape:window-y="-8"
     inkscape:window-maximized="1"
     inkscape:current-layer="layer1" />
  <defs
     id="defs1" />
  <g
     inkscape:label="Capa 1"
     inkscape:groupmode="layer"
     id="layer1">
    <g
       id="g5">
      <path
         id="path5"
         style="fill:#ffffff;stroke-width:0.264583"
         d="M 167.3886,125.54145 A 63.029045,63.029045 0 0 1 104.35956,188.5705 63.029045,63.029045 0 0 1 41.330513,125.54145 63.029045,63.029045 0 0 1 104.35956,62.512405 63.029045,63.029045 0 0 1 167.3886,125.54145 Z" />
      <path
         style="font-weight:bold;font-size:62.4181px;font-family:Arial;-inkscape-font-specification:'Arial Bold';fill:#333333;stroke-width:2.34067"
         d="m 89.281404,128.07305 -30.629975,-13.3187 v -7.37558 L 89.281404,94.121022 v 8.686108 l -21.364789,8.168 21.364789,8.47277 z m 20.176166,5.8517 11.06336,-46.204021 h 6.43077 l -11.18527,46.204021 z m 37.6703,-5.82122 v -8.62516 l 21.39527,-8.41181 -21.39527,-8.32038 v -8.564203 l 30.66045,13.257753 v 7.31462 z"
         id="text5"
         transform="scale(0.88275815,1.1328131)"
         aria-label="&lt; / &gt;" />
    </g>
  </g>
</svg>
