<?xml version="1.0" encoding="UTF-8" standalone="no"?>
<!-- Created with Inkscape (http://www.inkscape.org/) -->

<svg
   width="297mm"
   height="210mm"
   viewBox="0 0 297 210"
   version="1.1"
   id="svg1"
   inkscape:version="1.3 (0e150ed6c4, 2023-07-21)"
   sodipodi:docname="logoSWTnegativo.svg"
   xmlns:inkscape="http://www.inkscape.org/namespaces/inkscape"
   xmlns:sodipodi="http://sodipodi.sourceforge.net/DTD/sodipodi-0.dtd"
   xmlns="http://www.w3.org/2000/svg"
   xmlns:svg="http://www.w3.org/2000/svg">
  <sodipodi:namedview
     id="namedview1"
     pagecolor="#ffffff"
     bordercolor="#000000"
     borderopacity="0.25"
     inkscape:showpageshadow="2"
     inkscape:pageopacity="0.0"
     inkscape:pagecheckerboard="0"
     inkscape:deskcolor="#d1d1d1"
     inkscape:document-units="mm"
     showgrid="false"
     inkscape:zoom="0.7071068"
     inkscape:cx="490.02499"
     inkscape:cy="395.27268"
     inkscape:window-width="1920"
     inkscape:window-height="1009"
     inkscape:window-x="1912"
     inkscape:window-y="-8"
     inkscape:window-maximized="1"
     inkscape:current-layer="layer1">
    <inkscape:grid
       id="grid7"
       units="mm"
       originx="0"
       originy="0"
       spacingx="1"
       spacingy="0.99999998"
       empcolor="#0099e5"
       empopacity="0.30196078"
       color="#0099e5"
       opacity="0.14901961"
       empspacing="5"
       dotted="false"
       gridanglex="30"
       gridanglez="30"
       visible="false" />
  </sodipodi:namedview>
  <defs
     id="defs1">
    <rect
       x="627.9108"
       y="300.52037"
       width="530.33007"
       height="376.18079"
       id="rect1" />
    <clipPath
       clipPathUnits="userSpaceOnUse"
       id="clipPath7">
      <rect
         style="fill:#ed4000;fill-opacity:1;stroke-width:2.4308"
         id="rect7"
         width="3.4421158"
         height="8.3017054"
         x="112.79391"
         y="73.254097" />
    </clipPath>
  </defs>
  <g
     inkscape:label="Capa 1"
     inkscape:groupmode="layer"
     id="layer1">
    <path
       id="path14"
       style="font-weight:500;font-size:63.5px;line-height:1.6;font-family:Oswald;-inkscape-font-specification:'Oswald, Medium';text-align:center;text-anchor:middle;fill:#ffffff;fill-opacity:1;stroke-width:3.04284"
       d="m 88.901291,79.701056 c -2.283634,0.0058 -5.088651,0.01368 -11.271384,0.02742 -3.619144,0.02934 -6.473783,1.158701 -8.563257,3.139259 -2.089465,1.980559 -3.134074,4.798942 -3.134074,8.455358 0,2.551877 0.466394,4.703631 1.399199,6.455662 0.970106,1.713944 2.257501,3.275475 3.861913,4.684715 l 5.708839,5.14221 c 1.492476,1.29497 2.686321,2.58957 3.581808,3.88455 0.895479,1.29497 1.340719,3.25189 1.34317,4.97065 0.0018,1.0856 -0.279743,2.30412 -0.839423,3.14204 -0.559679,0.79985 -1.511197,1.20001 -2.854428,1.20001 -4.575068,0 -12.198416,-0.0212 -12.198416,-0.0212 l -0.0587,6.47795 c 0,0 5.473843,0.0561 12.536762,0.0561 2.276028,0 4.253892,-0.47611 5.932931,-1.42829 1.716348,-0.99028 3.040708,-2.34218 3.973505,-4.05612 0.970114,-1.71394 1.45522,-3.67563 1.45522,-5.88471 0,-3.04702 -0.671757,-5.63713 -2.014988,-7.77005 -1.305922,-2.171 -2.891772,-4.05628 -4.757365,-5.65596 l -5.652368,-5.08456 c -1.193986,-1.066452 -2.10852,-2.095045 -2.742827,-3.085319 -0.634298,-1.028368 -0.951473,-2.322966 -0.951473,-3.884559 0,-1.218806 0.317175,-2.228299 0.951473,-3.02814 0.380115,-0.89744 3.226373,-2.268428 5.448768,-2.238675 1.313793,-0.0038 6.687837,-0.03492 8.944615,-0.04615 z m -0.01957,5.45464 c 1.970504,-0.01063 4.129272,-0.02023 4.828422,-0.02417 l 5.691078,41.555674 h 6.883949 l 4.98147,-31.022043 5.03702,31.022043 H 123.02 l 5.39274,-40.048811 h 10.61379 V 126.6872 h 8.28314 V 86.638383 h 12.05496 l 0.0824,-6.916414 h -30.40217 l -6.52869,4.66e-4 -3.69385,30.682635 -4.81339,-30.684031 h -5.65282 l -4.70135,30.684031 -3.749868,-30.706347 -6.88577,-0.0075 v -4.65e-4 c 0,0 -3.598908,0.0087 -4.132013,0.01023 z"
       sodipodi:nodetypes="ccsscccsccsccsccsccccsccccccccccccccccccccccccccccc" />
    <text
       xml:space="preserve"
       transform="matrix(0.23319985,0,0,0.2380481,-14.588744,-8.0265102)"
       id="text1"
       style="font-style:normal;font-variant:normal;font-weight:500;font-stretch:normal;font-size:240px;line-height:1.6;font-family:Oswald;-inkscape-font-specification:'Oswald, Medium';font-variant-ligatures:normal;font-variant-caps:normal;font-variant-numeric:normal;font-variant-east-asian:normal;text-align:center;white-space:pre;shape-inside:url(#rect1);display:inline;fill:#ff4f00;fill-opacity:1;stroke:none;stroke-width:12.9146"><tspan
         x="752.91528"
         y="565.71791"
         id="tspan1">&lt;/&gt;</tspan></text>
  </g>
</svg>
