<?xml version="1.0" encoding="UTF-8" standalone="no"?>
<!-- Created with Inkscape (http://www.inkscape.org/) -->

<svg
   width="297mm"
   height="210mm"
   viewBox="0 0 297 210"
   version="1.1"
   id="svg1"
   inkscape:version="1.3 (0e150ed6c4, 2023-07-21)"
   sodipodi:docname="logoSWT.svg"
   xmlns:inkscape="http://www.inkscape.org/namespaces/inkscape"
   xmlns:sodipodi="http://sodipodi.sourceforge.net/DTD/sodipodi-0.dtd"
   xmlns="http://www.w3.org/2000/svg"
   xmlns:svg="http://www.w3.org/2000/svg">
  <sodipodi:namedview
     id="namedview1"
     pagecolor="#ffffff"
     bordercolor="#000000"
     borderopacity="0.25"
     inkscape:showpageshadow="2"
     inkscape:pageopacity="0.0"
     inkscape:pagecheckerboard="0"
     inkscape:deskcolor="#d1d1d1"
     inkscape:document-units="mm"
     showgrid="false"
     inkscape:zoom="1"
     inkscape:cx="551.49999"
     inkscape:cy="376.49999"
     inkscape:window-width="1920"
     inkscape:window-height="1009"
     inkscape:window-x="1912"
     inkscape:window-y="-8"
     inkscape:window-maximized="1"
     inkscape:current-layer="layer1">
    <inkscape:grid
       id="grid7"
       units="mm"
       originx="0"
       originy="0"
       spacingx="1"
       spacingy="0.99999998"
       empcolor="#0099e5"
       empopacity="0.30196078"
       color="#0099e5"
       opacity="0.14901961"
       empspacing="5"
       dotted="false"
       gridanglex="30"
       gridanglez="30"
       visible="false" />
  </sodipodi:namedview>
  <defs
     id="defs1">
    <rect
       x="627.9108"
       y="300.52037"
       width="530.33007"
       height="376.18079"
       id="rect1" />
    <clipPath
       clipPathUnits="userSpaceOnUse"
       id="clipPath7">
      <rect
         style="fill:#ed4000;fill-opacity:1;stroke-width:2.4308"
         id="rect7"
         width="3.4421158"
         height="8.3017054"
         x="112.79391"
         y="73.254097" />
    </clipPath>
  </defs>
  <g
     inkscape:label="Capa 1"
     inkscape:groupmode="layer"
     id="layer1">
    <path
       id="path14"
       style="font-weight:500;font-size:63.5px;line-height:1.6;font-family:Oswald;-inkscape-font-specification:'Oswald, Medium';text-align:center;text-anchor:middle;stroke-width:3.04282"
       d="m 87.617732,81.197861 c -2.283631,0.0058 -5.088646,0.01349 -11.271374,0.02758 -3.61914,0.02938 -6.47378,1.158688 -8.563247,3.139215 -2.089469,1.980536 -3.134099,4.798879 -3.134099,8.455262 0,2.551843 0.466397,4.703544 1.399223,6.455564 0.970083,1.713938 2.257499,3.275418 3.861894,4.684658 l 5.708842,5.14215 c 1.492474,1.29494 2.686317,2.58954 3.581824,3.88449 0.895477,1.29497 1.340706,3.25184 1.343143,4.97058 0.0018,1.08558 -0.27981,2.30407 -0.8394,3.142 -0.559676,0.79984 -1.511203,1.20001 -2.854435,1.20001 -4.575071,0 -12.198419,-0.021 -12.198419,-0.021 l -0.05872,6.47785 c 0,0 5.473837,0.0563 12.536773,0.0563 2.276026,0 4.253893,-0.47609 5.932924,-1.42826 1.716349,-0.99027 3.040696,-2.34214 3.97349,-4.05606 0.970114,-1.71391 1.455214,-3.6756 1.455214,-5.88464 0,-3.04699 -0.671748,-5.63705 -2.014979,-7.76995 -1.305913,-2.17094 -2.891777,-4.05621 -4.757366,-5.65587 L 76.066667,98.933258 C 74.872678,97.866832 73.958145,96.83826 73.323832,95.84799 72.68955,94.819629 72.372364,93.525066 72.372364,91.963491 c 0,-1.218797 0.317186,-2.228283 0.951468,-3.028116 0.380106,-0.897429 3.22638,-2.268398 5.448764,-2.238645 1.313812,-0.0036 6.687845,-0.03491 8.944611,-0.04616 z m -0.02056,5.454571 c 1.970496,-0.0108 4.129286,-0.02008 4.82843,-0.02428 L 98.11669,128.1833 h 6.88394 l 4.98146,-31.021651 5.03701,31.021651 h 6.71636 l 5.39274,-40.048314 h 10.61375 v 40.048294 h 8.28315 V 88.135101 h 12.05499 l 0.0824,-6.916326 h -30.40208 l -6.52869,4.94e-4 -3.69386,30.682211 -4.81339,-30.683607 h -5.65282 l -4.70134,30.683607 -3.749864,-30.705927 -6.88578,-0.0076 V 81.1875 c 0,0 -3.598908,0.0086 -4.132014,0.0102 z"
       sodipodi:nodetypes="ccsscccsccsccsccsccccsccccccccccccccccccccccccccccc" />
    <text
       xml:space="preserve"
       transform="matrix(0.23319982,0,0,0.23804498,-15.872287,-6.5282663)"
       id="text1"
       style="font-style:Oswaldo;font-variant:Oswaldo;font-weight:500;font-stretch:normal;font-size:240px;line-height:1.6;font-family:Oswald;-inkscape-font-specification:'Oswald, Medium';font-variant-ligatures:normal;font-variant-caps:normal;font-variant-numeric:normal;font-variant-east-asian:normal;text-align:center;white-space:pre;shape-inside:url(#rect1);display:inline;fill:#ff4f00;fill-opacity:1;stroke:none;stroke-width:12.9146"><tspan
         x="752.91528"
         y="565.71791"
         id="tspan1">&lt;/&gt;</tspan></text>
  </g>
</svg>
