<?xml version="1.0" encoding="UTF-8" standalone="no"?>
<!-- Created with Inkscape (http://www.inkscape.org/) -->

<svg
   width="210mm"
   height="297mm"
   viewBox="0 0 210 297"
   version="1.1"
   id="svg1"
   inkscape:version="1.3 (0e150ed6c4, 2023-07-21)"
   sodipodi:docname="logoUnderground.svg"
   xmlns:inkscape="http://www.inkscape.org/namespaces/inkscape"
   xmlns:sodipodi="http://sodipodi.sourceforge.net/DTD/sodipodi-0.dtd"
   xmlns="http://www.w3.org/2000/svg"
   xmlns:svg="http://www.w3.org/2000/svg">
  <sodipodi:namedview
     id="namedview1"
     pagecolor="#ffffff"
     bordercolor="#000000"
     borderopacity="0.25"
     inkscape:showpageshadow="2"
     inkscape:pageopacity="0.0"
     inkscape:pagecheckerboard="0"
     inkscape:deskcolor="#d1d1d1"
     inkscape:document-units="mm"
     inkscape:zoom="2.0485264"
     inkscape:cx="336.33933"
     inkscape:cy="582.61391"
     inkscape:window-width="1920"
     inkscape:window-height="1009"
     inkscape:window-x="-8"
     inkscape:window-y="-8"
     inkscape:window-maximized="1"
     inkscape:current-layer="svg1" />
  <defs
     id="defs1" />
  <g
     id="g16"
     inkscape:label="g16">
    <g
       id="g18">
      <path
         id="path1"
         style="fill:#ff0000;fill-opacity:1;stroke:none;stroke-width:2.155"
         d="M 105.38721,111.30277 A 37.197472,37.197472 0 0 0 68.19,148.49998 a 37.197472,37.197472 0 0 0 37.19721,37.19773 37.197472,37.197472 0 0 0 37.19773,-37.19773 37.197472,37.197472 0 0 0 -37.19773,-37.19721 z m 0,11.85664 a 25.340487,25.340487 0 0 1 25.34057,25.34057 25.340487,25.340487 0 0 1 -25.34057,25.34057 25.340487,25.340487 0 0 1 -25.340053,-25.34057 25.340487,25.340487 0 0 1 25.340053,-25.34057 z" />
      <g
         id="g17"
         transform="translate(0.38747361,2.3952316e-4)">
        <rect
           style="fill:#0000ff;fill-opacity:1;stroke:none;stroke-width:2.155;stroke-opacity:1"
           id="rect12"
           width="92.218727"
           height="12.657472"
           x="58.890633"
           y="142.17126" />
        <text
           xml:space="preserve"
           style="font-style:normal;font-variant:normal;font-weight:normal;font-stretch:normal;font-size:10.27px;font-family:arial;-inkscape-font-specification:arial;fill:#ffffff;fill-opacity:1;stroke:none;stroke-width:2.614;stroke-opacity:1"
           x="63.807163"
           y="152.17574"
           id="text15"><tspan
             sodipodi:role="line"
             id="tspan15"
             style="font-weight:bold;font-size:10.27px;fill:#ffffff;fill-opacity:1;stroke-width:2.614"
             x="63.807163"
             y="152.17574">UNDERGROUND</tspan></text>
      </g>
    </g>
  </g>
</svg>
