<?xml version="1.0" encoding="UTF-8" standalone="no"?>
<!-- Created with Inkscape (http://www.inkscape.org/) -->

<svg
   width="297mm"
   height="210mm"
   viewBox="0 0 297 210"
   version="1.1"
   id="svg1"
   inkscape:version="1.3 (0e150ed6c4, 2023-07-21)"
   sodipodi:docname="logoSWTnegativo.svg"
   xmlns:inkscape="http://www.inkscape.org/namespaces/inkscape"
   xmlns:sodipodi="http://sodipodi.sourceforge.net/DTD/sodipodi-0.dtd"
   xmlns="http://www.w3.org/2000/svg"
   xmlns:svg="http://www.w3.org/2000/svg">
  <sodipodi:namedview
     id="namedview1"
     pagecolor="#ffffff"
     bordercolor="#000000"
     borderopacity="0.25"
     inkscape:showpageshadow="2"
     inkscape:pageopacity="0.0"
     inkscape:pagecheckerboard="0"
     inkscape:deskcolor="#d1d1d1"
     inkscape:document-units="mm"
     showgrid="false"
     inkscape:zoom="0.7071068"
     inkscape:cx="490.02499"
     inkscape:cy="395.27268"
     inkscape:window-width="1920"
     inkscape:window-height="1009"
     inkscape:window-x="1912"
     inkscape:window-y="-8"
     inkscape:window-maximized="1"
     inkscape:current-layer="layer1">
    <inkscape:grid
       id="grid7"
       units="mm"
       originx="0"
       originy="0"
       spacingx="1"
       spacingy="0.99999998"
       empcolor="#0099e5"
       empopacity="0.30196078"
       color="#0099e5"
       opacity="0.14901961"
       empspacing="5"
       dotted="false"
       gridanglex="30"
       gridanglez="30"
       visible="false" />
  </sodipodi:namedview>
  <defs
     id="defs1">
    <rect
       x="627.9108"
       y="300.52037"
       width="530.33007"
       height="376.18079"
       id="rect1" />
    <clipPath
       clipPathUnits="userSpaceOnUse"
       id="clipPath7">
      <rect
         style="fill:#ed4000;fill-opacity:1;stroke-width:2.4308"
         id="rect7"
         width="3.4421158"
         height="8.3017054"
         x="112.79391"
         y="73.254097" />
    </clipPath>
  </defs>
  <g
     inkscape:label="Capa 1"
     inkscape:groupmode="layer"
     id="layer1">
    <path
       id="path14"
       style="font-weight:500;font-size:63.5px;line-height:1.6;font-family:Oswald;-inkscape-font-specification:'Oswald, Medium';text-align:center;text-anchor:middle;stroke-width:3.417;fill:#ffffff;fill-opacity:1"
       d="m 81.317809,77.04782 c -2.59096,0.0065 -5.77347,0.01521 -12.78826,0.03048 -4.1062,0.03261 -7.34501,1.287862 -9.71568,3.489193 -2.37066,2.201331 -3.55585,5.33388 -3.55585,9.397876 0,2.836335 0.52916,5.227945 1.5875,7.175275 1.10066,1.904998 2.56131,3.640586 4.38164,5.206916 l 6.47712,5.71541 c 1.69333,1.43932 3.04784,2.87823 4.06384,4.31756 1.01599,1.43933 1.52115,3.61438 1.52393,5.52473 0.002,1.20661 -0.31739,2.56096 -0.95239,3.49229 -0.635,0.889 -1.71457,1.33377 -3.23857,1.33377 -5.19077,0 -13.84005,-0.0236 -13.84005,-0.0236 l -0.0666,7.20005 c 0,0 6.2105,0.0624 14.22393,0.0624 2.58233,0 4.82637,-0.52918 6.73137,-1.5875 1.94733,-1.10067 3.44992,-2.60326 4.50825,-4.50826 1.10067,-1.90499 1.65106,-4.08535 1.65106,-6.54068 0,-3.38667 -0.76216,-6.2655 -2.28616,-8.63617 -1.48167,-2.413 -3.28094,-4.50844 -5.3976,-6.28643 l -6.41305,-5.651336 c -1.35467,-1.18533 -2.39228,-2.32858 -3.11195,-3.42924 -0.71966,-1.143 -1.07952,-2.581907 -1.07952,-4.317571 0,-1.354666 0.35986,-2.476687 1.07952,-3.365687 0.43127,-0.997478 3.66057,-2.52129 6.18205,-2.48822 1.4906,-0.0042 7.58787,-0.03881 10.14836,-0.0513 z m -0.0222,6.062669 c 2.23569,-0.01181 4.68498,-0.02248 5.47822,-0.02687 l 6.45697,46.187881 h 7.810371 l 5.65186,-34.480066 5.71489,34.480066 h 7.62021 l 6.11849,-44.513048 h 12.04216 V 129.2715 h 9.39787 V 84.758451 h 13.67729 l 0.0935,-7.687386 h -34.49363 l -7.4073,5.17e-4 -4.19096,34.102828 -5.46117,-34.104379 h -6.41356 l -5.334041,34.104379 -4.25452,-34.129183 -7.81244,-0.0083 v -5.17e-4 c 0,0 -4.08324,0.0097 -4.68809,0.01137 z"
       sodipodi:nodetypes="ccsscccsccsccsccsccccsccccccccccccccccccccccccccccc" />
    <text
       xml:space="preserve"
       transform="matrix(0.26458333,0,0,0.26458333,-36.099669,-20.45874)"
       id="text1"
       style="font-style:normal;font-variant:normal;font-weight:500;font-stretch:normal;font-size:240px;line-height:1.6;font-family:Oswald;-inkscape-font-specification:'Oswald, Medium';font-variant-ligatures:normal;font-variant-caps:normal;font-variant-numeric:normal;font-variant-east-asian:normal;text-align:center;white-space:pre;shape-inside:url(#rect1);display:inline;fill:#ff4f00;fill-opacity:1;stroke:none;stroke-width:12.9146"><tspan
         x="752.91528"
         y="565.71791"
         id="tspan2">&lt;/&gt;</tspan></text>
  </g>
</svg>
