<?xml version="1.0" encoding="UTF-8" standalone="no"?>
<!-- Created with Inkscape (http://www.inkscape.org/) -->

<svg
   width="145.52086mm"
   height="33.337502mm"
   viewBox="0 0 145.52086 33.337502"
   version="1.1"
   id="svg1"
   sodipodi:docname="logoGrande.svg"
   inkscape:version="1.3 (0e150ed6c4, 2023-07-21)"
   xmlns:inkscape="http://www.inkscape.org/namespaces/inkscape"
   xmlns:sodipodi="http://sodipodi.sourceforge.net/DTD/sodipodi-0.dtd"
   xmlns="http://www.w3.org/2000/svg"
   xmlns:svg="http://www.w3.org/2000/svg">
  <sodipodi:namedview
     id="namedview1"
     pagecolor="#ffffff"
     bordercolor="#000000"
     borderopacity="0.25"
     inkscape:showpageshadow="2"
     inkscape:pageopacity="0.0"
     inkscape:pagecheckerboard="0"
     inkscape:deskcolor="#d1d1d1"
     inkscape:document-units="mm"
     inkscape:zoom="5.7941077"
     inkscape:cx="217.72118"
     inkscape:cy="496.7978"
     inkscape:window-width="1920"
     inkscape:window-height="1009"
     inkscape:window-x="1912"
     inkscape:window-y="-8"
     inkscape:window-maximized="1"
     inkscape:current-layer="layer1" />
  <defs
     id="defs1" />
  <g
     inkscape:label="Capa 1"
     inkscape:groupmode="layer"
     id="layer1"
     transform="translate(-250.96941,-228.08746)">
    <path
       style="font-weight:bold;font-size:7.05556px;font-family:Bahnschrift;-inkscape-font-specification:'Bahnschrift Bold';fill:#333333;stroke-width:1.34756"
       d="m 287.15373,256.85025 c -1.21786,0 -2.4125,-0.1216 -3.58331,-0.36835 -1.1595,-0.24421 -2.24835,-0.60162 -3.26713,-1.06918 -1.01878,-0.47926 -1.93803,-1.05168 -2.75774,-1.71771 v 0 l 2.23078,-3.96123 v 0 c 0.98365,0.80625 2.11954,1.43142 3.40765,1.87548 1.28812,0.43245 2.61137,0.64853 3.96975,0.64853 1.56916,0 2.78701,-0.26304 3.65357,-0.78875 0.86655,-0.53751 1.29982,-1.29121 1.29982,-2.26107 v -0.0153 c 0,-0.73614 -0.21664,-1.29705 -0.64991,-1.68265 -0.43328,-0.39735 -1.00707,-0.68938 -1.72139,-0.87636 -0.70261,-0.18672 -1.46963,-0.34443 -2.30105,-0.47315 -0.99536,-0.15213 -2.00243,-0.33884 -3.02122,-0.56087 -1.01878,-0.23353 -1.95559,-0.59592 -2.81044,-1.08673 -0.85484,-0.50267 -1.54573,-1.21525 -2.07269,-2.13836 -0.51525,-0.92311 -0.77287,-2.15586 -0.77287,-3.6983 v -0.0153 c 0,-2.48896 0.81971,-4.41114 2.45913,-5.76661 1.63942,-1.36711 3.95838,-2.09633 6.95583,-2.05069 5.94393,0.0906 7.20759,0.25845 10.46887,0.25845 l 2.69802,4.33375 v 0 c 0,0 -8.80259,-0.46349 -13.16689,0 -1.16136,0.12313 -2.61722,0.24523 -3.42522,0.73619 -0.808,0.47926 -1.212,1.15684 -1.212,2.0332 v 0.0153 c 0,0.81795 0.24004,1.43728 0.72017,1.85793 0.48014,0.42075 1.10661,0.73619 1.87949,0.94651 0.77286,0.19893 1.60429,0.38565 2.49426,0.56087 0.98365,0.18672 1.96145,0.42075 2.93339,0.70114 0.97194,0.26863 1.86191,0.66008 2.66992,1.17434 0.80799,0.51411 1.45205,1.22105 1.93217,2.12081 0.48013,0.89976 0.72017,2.0683 0.72017,3.50552 v 0.0356 c 0,2.45385 -0.84898,4.35853 -2.54696,5.71404 -1.69797,1.34377 -4.0927,2.01565 -7.18417,2.01565 z m 19.72575,-8.74626 4.88313,-17.00182 h 3.86435 l 4.88314,17.00182 3.28469,-17.00182 h 4.9534 l -5.88435,25.4852 h -4.53183 l -4.53183,-17.80807 -4.74261,17.80807 h -4.53183 l -5.88436,-25.4852 h 4.9534 z m 30.40541,8.48338 v -23.3994 h 4.81287 v 23.3994 z m -11.23472,-20.85789 2.69802,-4.62731 h 20.3054 v 4.62731 z m -62.62699,6.976 -4.83044,2.20847 h -7.62332 l 12.45376,-7.86991 z m 0,4.57471 v 5.52117 l -12.45375,-7.88741 h 7.62331 z m 107.99096,-19.19273 -11.4174,33.3375 h -4.56696 l 11.41741,-33.3375 z m 9.92436,14.61802 v -5.66144 l 15.15176,7.86991 h -7.62331 z m 0,4.57471 7.52845,-2.36624 h 7.62331 l -15.15176,7.88741 z"
       id="text1"
       aria-label="SWT &lt; / &gt;"
       sodipodi:nodetypes="cscsccscscssccccccsscsccaacssscccsssscccccccccccccccccccccccccccccccccccccccccccccccccccc" />
  </g>
</svg>
