<?xml version="1.0" encoding="UTF-8" standalone="no"?>
<!-- Created with Inkscape (http://www.inkscape.org/) -->

<svg
   width="210mm"
   height="297mm"
   viewBox="0 0 210 297"
   version="1.1"
   id="svg1"
   inkscape:version="1.3 (0e150ed6c4, 2023-07-21)"
   sodipodi:docname="PruebaDeLogo.svg"
   xmlns:inkscape="http://www.inkscape.org/namespaces/inkscape"
   xmlns:sodipodi="http://sodipodi.sourceforge.net/DTD/sodipodi-0.dtd"
   xmlns="http://www.w3.org/2000/svg"
   xmlns:svg="http://www.w3.org/2000/svg">
  <sodipodi:namedview
     id="namedview1"
     pagecolor="#ffffff"
     bordercolor="#000000"
     borderopacity="0.25"
     inkscape:showpageshadow="2"
     inkscape:pageopacity="0.0"
     inkscape:pagecheckerboard="0"
     inkscape:deskcolor="#d1d1d1"
     inkscape:document-units="mm"
     inkscape:zoom="8.1941057"
     inkscape:cx="243.65075"
     inkscape:cy="505.66836"
     inkscape:window-width="1920"
     inkscape:window-height="1009"
     inkscape:window-x="1912"
     inkscape:window-y="-8"
     inkscape:window-maximized="1"
     inkscape:current-layer="layer1" />
  <defs
     id="defs1" />
  <g
     inkscape:label="Capa 1"
     inkscape:groupmode="layer"
     id="layer1">
    <path
       style="font-weight:bold;font-size:7.05556px;font-family:Bahnschrift;-inkscape-font-specification:'Bahnschrift Bold';fill:#333333;stroke-width:0.264583"
       d="m 55.826732,137.4096 c -0.23886,0 -0.473166,-0.0239 -0.7028,-0.0724 -0.227415,-0.048 -0.440972,-0.11825 -0.640788,-0.21015 -0.199815,-0.0942 -0.380109,-0.20671 -0.54088,-0.33762 v 0 l 0.437527,-0.77859 v 0 c 0.192925,0.15847 0.415708,0.28135 0.668349,0.36863 0.252641,0.085 0.512171,0.12747 0.778592,0.12747 0.307762,0 0.546622,-0.0517 0.716581,-0.15503 0.169958,-0.10565 0.254937,-0.25379 0.254937,-0.44442 v -0.003 c 0,-0.14469 -0.04249,-0.25494 -0.127469,-0.33073 -0.08498,-0.0781 -0.197518,-0.1355 -0.337619,-0.17225 -0.137804,-0.0367 -0.28824,-0.0677 -0.451308,-0.093 -0.195222,-0.0299 -0.392741,-0.0666 -0.592557,-0.11024 -0.199815,-0.0459 -0.383554,-0.11713 -0.551216,-0.2136 -0.167661,-0.0988 -0.303168,-0.23886 -0.406521,-0.4203 -0.101056,-0.18144 -0.151584,-0.42374 -0.151584,-0.72691 v -0.003 c 0,-0.48921 0.160771,-0.86702 0.482313,-1.13344 0.321543,-0.26871 0.776364,-0.41204 1.364259,-0.40307 1.165792,0.0178 1.413637,0.0508 2.053278,0.0508 l 0.529167,0.85181 v 0 c 0,0 -1.726468,-0.0911 -2.582445,0 -0.227779,0.0242 -0.513319,0.0482 -0.671794,0.1447 -0.158475,0.0942 -0.237712,0.22738 -0.237712,0.39963 v 0.003 c 0,0.16077 0.04708,0.2825 0.141249,0.36518 0.09417,0.0827 0.217041,0.1447 0.368626,0.18604 0.151584,0.0391 0.314652,0.0758 0.489204,0.11024 0.192925,0.0367 0.384702,0.0827 0.575331,0.13781 0.190629,0.0528 0.36518,0.12974 0.523655,0.23082 0.158474,0.10105 0.284794,0.24 0.37896,0.41685 0.09417,0.17685 0.141249,0.40653 0.141249,0.68902 v 0.007 c 0,0.48231 -0.166513,0.85668 -0.499539,1.12311 -0.333026,0.26412 -0.802708,0.39618 -1.409045,0.39618 z m 3.868845,-1.7191 0.957737,-3.34175 h 0.757922 l 0.957737,3.34175 0.644233,-3.34175 h 0.971518 l -1.154108,5.00918 h -0.888835 l -0.888835,-3.50022 -0.930177,3.50022 h -0.888835 l -1.154108,-5.00918 h 0.971518 z m 5.963464,1.66743 v -4.59921 h 0.943957 v 4.59921 z m -2.203484,-4.09967 0.529167,-0.90951 h 3.982533 v 0.90951 z m 8.883529,1.37115 -0.947402,0.43408 h -1.495173 l 2.442575,-1.54685 z m 0,0.89917 v 1.0852 l -2.442575,-1.55029 h 1.495173 z m 5.30545,-3.77238 -2.239313,6.55257 h -0.895726 l 2.239314,-6.55257 z m 1.94648,2.87321 v -1.11277 l 2.442575,1.54685 h -1.495173 z m 0,0.89917 0.947402,-0.46509 h 1.495173 l -2.442575,1.55029 z"
       id="text1"
       aria-label="SWT &lt; / &gt;"
       sodipodi:nodetypes="cscsccscscssccccccsscsccaacssscccsssscccccccccccccccccccccccccccccccccccccccccccccccccccc" />
  </g>
</svg>
